<?xml version="1.0" encoding="UTF-8" standalone="no"?>
<svg width="16px" height="16px" viewBox="0 0 16 16" version="1.1" xmlns="http://www.w3.org/2000/svg" xmlns:xlink="http://www.w3.org/1999/xlink">
    <!-- Generator: Sketch 47.1 (45422) - http://www.bohemiancoding.com/sketch -->
    <title>02_nor</title>
    <desc>Created with Sketch.</desc>
    <defs></defs>
    <g id="Symbols" stroke="none" stroke-width="1" fill="none" fill-rule="evenodd">
        <g id="02_nor">
            <g>
                <rect id="Rectangle-7" fill-opacity="0.01" fill="#1A2C55" x="0" y="0" width="16" height="16"></rect>
                <g id="group-add" transform="translate(0.000000, 2.000000)" fill-rule="nonzero" fill="#FFFFFF">
                    <path d="M6.73684211,4.23076923 L4.21052632,4.23076923 L4.21052632,1.69230769 L2.52631579,1.69230769 L2.52631579,4.23076923 L0,4.23076923 L0,5.92307692 L2.52631579,5.92307692 L2.52631579,8.46153846 L4.21052632,8.46153846 L4.21052632,5.92307692 L6.73684211,5.92307692 L6.73684211,4.23076923 L6.73684211,4.23076923 Z M10.9473684,5.07692308 C12.3789474,5.07692308 13.4736842,3.97692308 13.4736842,2.53846154 C13.4736842,1.1 12.3789474,0 10.9473684,0 C9.51578947,0 8.42105263,1.1 8.42105263,2.53846154 C8.42105263,3.97692308 9.51578947,5.07692308 10.9473684,5.07692308 L10.9473684,5.07692308 Z M10.9473684,6.76923077 C9.26315789,6.76923077 5.89473684,7.61538462 5.89473684,9.30769231 L5.89473684,11 L16,11 L16,9.30769231 C16,7.61538462 12.6315789,6.76923077 10.9473684,6.76923077 L10.9473684,6.76923077 Z" id="Shape"></path>
                </g>
            </g>
        </g>
    </g>
</svg>