<?xml version="1.0" encoding="UTF-8" standalone="no"?>
<svg width="16px" height="16px" viewBox="0 0 16 16" version="1.1" xmlns="http://www.w3.org/2000/svg" xmlns:xlink="http://www.w3.org/1999/xlink">
    <!-- Generator: Sketch 47.1 (45422) - http://www.bohemiancoding.com/sketch -->
    <title>03_nor</title>
    <desc>Created with Sketch.</desc>
    <defs></defs>
    <g id="Symbols" stroke="none" stroke-width="1" fill="none" fill-rule="evenodd">
        <g id="03_nor" fill-rule="nonzero" fill="#FFFFFF">
            <path d="M8,0 C3.6,0 0,3.6 0,8 C0,12.4 3.6,16 8,16 C12.4,16 16,12.4 16,8 C16,3.6 12.4,0 8,0 L8,0 Z M8,2.4 C9.36,2.4 10.4,3.44 10.4,4.8 C10.4,6.16 9.36,7.2 8,7.2 C6.64,7.2 5.6,6.16 5.6,4.8 C5.6,3.44 6.64,2.4 8,2.4 L8,2.4 Z M8,13.76 C6,13.76 4.24,12.72 3.2,11.2 C3.2,9.6 6.4,8.72 8,8.72 C9.6,8.72 12.8,9.6 12.8,11.2 C11.76,12.72 10,13.76 8,13.76 L8,13.76 Z" id="Shape"></path>
        </g>
    </g>
</svg>