<?xml version="1.0" encoding="UTF-8" standalone="no"?>
<svg width="16px" height="16px" viewBox="0 0 16 16" version="1.1" xmlns="http://www.w3.org/2000/svg" xmlns:xlink="http://www.w3.org/1999/xlink">
    <!-- Generator: Sketch 47.1 (45422) - http://www.bohemiancoding.com/sketch -->
    <title>05_nor</title>
    <desc>Created with Sketch.</desc>
    <defs></defs>
    <g id="Symbols" stroke="none" stroke-width="1" fill="none" fill-rule="evenodd">
        <g id="05_nor">
            <g>
                <rect id="Rectangle-7" fill-opacity="0.01" fill="#1A2C55" x="0" y="0" width="16" height="16"></rect>
                <g id="shopping-cart" fill-rule="nonzero" fill="#FFFFFF">
                    <path d="M4.8,12.8 C3.92,12.8 3.2,13.52 3.2,14.4 C3.2,15.28 3.92,16 4.8,16 C5.68,16 6.4,15.28 6.4,14.4 C6.4,13.52 5.68,12.8 4.8,12.8 L4.8,12.8 Z M0,0 L0,1.6 L1.6,1.6 L4.48,7.68 L3.36,9.6 C3.28,9.84 3.2,10.16 3.2,10.4 C3.2,11.28 3.92,12 4.8,12 L14.4,12 L14.4,10.4 L5.12,10.4 C5.04,10.4 4.96,10.32 4.96,10.24 L4.96,10.16 L5.68,8.8 L11.6,8.8 C12.24,8.8 12.72,8.48 12.96,8 L15.84,2.8 C16,2.64 16,2.56 16,2.4 C16,1.92 15.68,1.6 15.2,1.6 L3.36,1.6 L2.64,0 L0,0 L0,0 Z M12.8,12.8 C11.92,12.8 11.2,13.52 11.2,14.4 C11.2,15.28 11.92,16 12.8,16 C13.68,16 14.4,15.28 14.4,14.4 C14.4,13.52 13.68,12.8 12.8,12.8 L12.8,12.8 Z" id="Shape"></path>
                </g>
            </g>
        </g>
    </g>
</svg>