<?xml version="1.0" encoding="UTF-8" standalone="no"?>
<svg width="16px" height="16px" viewBox="0 0 16 16" version="1.1" xmlns="http://www.w3.org/2000/svg" xmlns:xlink="http://www.w3.org/1999/xlink">
    <!-- Generator: Sketch 47.1 (45422) - http://www.bohemiancoding.com/sketch -->
    <title>07_nor</title>
    <desc>Created with Sketch.</desc>
    <defs></defs>
    <g id="Symbols" stroke="none" stroke-width="1" fill="none" fill-rule="evenodd">
        <g id="07_nor" fill-rule="nonzero" fill="#FFFFFF">
            <g id="07">
                <path d="M8,7.12 C7.52,7.12 7.12,7.52 7.12,8 C7.12,8.48 7.52,8.88 8,8.88 C8.48,8.88 8.88,8.48 8.88,8 C8.88,7.52 8.48,7.12 8,7.12 L8,7.12 Z M8,0 C3.6,0 0,3.6 0,8 C0,12.4 3.6,16 8,16 C12.4,16 16,12.4 16,8 C16,3.6 12.4,0 8,0 L8,0 Z M9.76,9.76 L3.2,12.8 L6.24,6.24 L12.8,3.2 L9.76,9.76 L9.76,9.76 Z" id="Shape"></path>
            </g>
        </g>
    </g>
</svg>