<?xml version="1.0" encoding="UTF-8" standalone="no"?>
<svg width="16px" height="16px" viewBox="0 0 16 16" version="1.1" xmlns="http://www.w3.org/2000/svg" xmlns:xlink="http://www.w3.org/1999/xlink">
    <!-- Generator: Sketch 47.1 (45422) - http://www.bohemiancoding.com/sketch -->
    <title>04_nor</title>
    <desc>Created with Sketch.</desc>
    <defs></defs>
    <g id="Symbols" stroke="none" stroke-width="1" fill="none" fill-rule="evenodd">
        <g id="04_nor">
            <g id="Rectangle-7" fill="#1A2C55" fill-opacity="0.01">
                <rect x="0" y="0" width="16" height="16"></rect>
            </g>
            <g id="storage" transform="translate(0.000000, 2.500000)" fill-rule="nonzero" fill="#FFFFFF">
                <path d="M0,11 L16,11 L16,7.85714286 L0,7.85714286 L0,11 L0,11 Z M1.6,8.64285714 L3.2,8.64285714 L3.2,10.2142857 L1.6,10.2142857 L1.6,8.64285714 L1.6,8.64285714 Z M0,0 L0,3.14285714 L16,3.14285714 L16,0 L0,0 L0,0 Z M3.2,2.35714286 L1.6,2.35714286 L1.6,0.785714286 L3.2,0.785714286 L3.2,2.35714286 L3.2,2.35714286 Z M0,7.07142857 L16,7.07142857 L16,3.92857143 L0,3.92857143 L0,7.07142857 L0,7.07142857 Z M1.6,4.71428571 L3.2,4.71428571 L3.2,6.28571429 L1.6,6.28571429 L1.6,4.71428571 L1.6,4.71428571 Z" id="Shape"></path>
            </g>
        </g>
    </g>
</svg>