<?xml version="1.0" encoding="UTF-8" standalone="no"?>
<svg width="16px" height="16px" viewBox="0 0 16 16" version="1.1" xmlns="http://www.w3.org/2000/svg" xmlns:xlink="http://www.w3.org/1999/xlink">
    <!-- Generator: Sketch 47.1 (45422) - http://www.bohemiancoding.com/sketch -->
    <title>06_nor</title>
    <desc>Created with Sketch.</desc>
    <defs></defs>
    <g id="Symbols" stroke="none" stroke-width="1" fill="none" fill-rule="evenodd">
        <g id="06_nor">
            <g>
                <rect id="Rectangle-7" fill-opacity="0.01" fill="#1A2C55" x="0" y="0" width="16" height="16"></rect>
                <g id="drive-fusiontable" fill-rule="nonzero" fill="#FFFFFF">
                    <path d="M14.2222222,0 L1.77777778,0 C0.8,0 0,0.8 0,1.77777778 L0,14.2222222 C0,15.2 0.8,16 1.77777778,16 L14.2222222,16 C15.2,16 16,15.2 16,14.2222222 L16,1.77777778 C16,0.8 15.2,0 14.2222222,0 L14.2222222,0 Z M14.2222222,6.4 L8.88888889,12.4444444 L5.33333333,8.88888889 L1.77777778,12.4444444 L1.77777778,9.77777778 L5.33333333,6.22222222 L8.88888889,9.77777778 L14.2222222,3.73333333 L14.2222222,6.4 L14.2222222,6.4 Z" id="Shape"></path>
                </g>
            </g>
        </g>
    </g>
</svg>